<svg xmlns="http://www.w3.org/2000/svg" width="500" height="500" viewBox="0 0 500 500" version="1.1"><path d="M 302.910 40.150 C 300.880 41.971, 300.815 42.187, 302.500 41.522 C 303.600 41.088, 305.394 40.773, 306.487 40.822 C 307.580 40.871, 308.030 40.589, 307.487 40.194 C 306.944 39.800, 306.235 39.142, 305.910 38.732 C 305.586 38.322, 304.236 38.960, 302.910 40.150 M 287.697 42.393 C 287.288 43.434, 287.189 44.522, 287.476 44.810 C 288.389 45.722, 289.191 44.227, 288.809 42.328 C 288.459 40.588, 288.405 40.591, 287.697 42.393 M 268.609 49.576 C 267.764 51.779, 268.692 52.708, 270.217 51.183 C 271.055 50.345, 271.089 49.689, 270.333 48.933 C 269.576 48.176, 269.074 48.364, 268.609 49.576 M 385 53.479 C 385 53.639, 386.111 54.498, 387.470 55.388 C 389.404 56.655, 389.823 56.702, 389.401 55.602 C 388.955 54.441, 385 52.533, 385 53.479 M 255.441 58.468 C 254.374 59.276, 252.713 59.951, 251.750 59.968 C 250.787 59.986, 250 60.681, 250 61.514 C 250 62.678, 250.927 62.415, 254 60.381 C 257.544 58.036, 258.675 57, 257.691 57 C 257.521 57, 256.509 57.661, 255.441 58.468 M 241 67.667 C 241 68.400, 241.402 69, 241.893 69 C 242.384 69, 243.016 68.400, 243.298 67.667 C 243.579 66.933, 243.177 66.333, 242.405 66.333 C 241.632 66.333, 241 66.933, 241 67.667 M 307.750 67.798 C 304.865 68.373, 305.774 69.484, 309.335 69.736 C 311.488 69.889, 312.667 69.523, 312.667 68.701 C 312.667 67.432, 311.067 67.138, 307.750 67.798 M 322.269 68.307 C 322.758 69.773, 325.205 69.885, 325.679 68.464 C 325.869 67.894, 325.090 67.357, 323.948 67.271 C 322.736 67.180, 322.037 67.611, 322.269 68.307 M 237.250 70.220 C 236.012 70.817, 235 71.916, 235 72.661 C 235 73.762, 235.372 73.785, 236.981 72.780 C 238.512 71.823, 240.789 68.736, 239.719 69.068 C 239.598 69.105, 238.488 69.624, 237.250 70.220 M 413.958 74.443 C 416.410 76.950, 418.600 79, 418.824 79 C 419.675 79, 412.430 71.170, 411 70.544 C 410.175 70.182, 411.506 71.937, 413.958 74.443 M 287.503 72.995 C 287.209 73.472, 287.494 74.187, 288.138 74.585 C 288.923 75.070, 289.039 74.872, 288.490 73.985 C 287.899 73.028, 288.125 72.834, 289.304 73.286 C 290.202 73.631, 291.144 73.576, 291.399 73.164 C 291.653 72.752, 291.001 72.350, 289.950 72.271 C 288.899 72.192, 287.798 72.518, 287.503 72.995 M 268.565 81.895 C 268.260 82.388, 268.684 83.048, 269.506 83.364 C 270.413 83.712, 271 83.361, 271 82.469 C 271 80.851, 269.437 80.483, 268.565 81.895 M 311 84.901 C 311 85.662, 310.265 85.902, 309.084 85.527 C 308.030 85.192, 306.922 85.318, 306.620 85.805 C 306.319 86.293, 307.883 86.692, 310.096 86.692 C 312.309 86.692, 313.756 86.419, 313.310 86.085 C 312.865 85.750, 312.163 85.069, 311.750 84.572 C 311.333 84.068, 311 84.214, 311 84.901 M 262 86.500 C 261.140 87.536, 261.102 88, 261.878 88 C 262.495 88, 263 87.523, 263 86.941 C 263 86.359, 263.450 86.160, 264 86.500 C 264.550 86.840, 265 86.641, 265 86.059 C 265 84.530, 263.446 84.758, 262 86.500 M 220.031 87.463 C 219.373 88.255, 218.986 89.690, 219.171 90.652 C 219.450 92.100, 219.806 91.946, 221.243 89.752 C 223.082 86.946, 222.060 85.017, 220.031 87.463 M 252.056 94.440 C 249.877 96.760, 249.866 96.848, 251.816 96.338 C 252.941 96.044, 254.128 95.108, 254.454 94.258 C 255.411 91.764, 254.505 91.833, 252.056 94.440 M 282.523 94.367 C 281.436 94.990, 280.086 96.031, 279.523 96.681 C 278.960 97.330, 277.663 98.005, 276.639 98.181 C 274.720 98.510, 268.918 103.197, 269.575 103.889 C 269.850 104.178, 279.761 97.982, 284.917 94.298 C 286.228 93.361, 284.176 93.420, 282.523 94.367 M 211.664 101.750 C 210.424 104.475, 210.364 104.953, 211.444 103.500 C 212.262 102.400, 213.397 100.956, 213.966 100.292 C 215.210 98.840, 215.290 98, 214.185 98 C 213.737 98, 212.602 99.688, 211.664 101.750 M 235.250 115.515 C 232.579 119.618, 232.520 120, 234.559 120 C 235.481 120, 235.827 119.529, 235.406 118.848 C 235.015 118.215, 235.478 117.124, 236.435 116.424 C 237.392 115.724, 238.024 114.455, 237.838 113.604 C 237.605 112.540, 236.798 113.136, 235.250 115.515 M 310.500 117.635 C 304.518 120.180, 301.490 122.074, 304.119 121.626 C 304.879 121.497, 306.905 120.646, 308.623 119.735 C 310.341 118.825, 311.923 118.256, 312.138 118.471 C 312.354 118.687, 313.648 118.004, 315.015 116.954 C 318.229 114.485, 317.726 114.560, 310.500 117.635 M 202.667 117.667 C 202.300 118.033, 202.029 119.271, 202.063 120.417 C 202.122 122.332, 202.204 122.307, 203.085 120.105 C 204.064 117.657, 203.861 116.472, 202.667 117.667 M 221 176.441 C 221 178.948, 221.450 181, 222 181 C 222.550 181, 223 179.227, 223 177.059 C 223 174.891, 222.550 172.840, 222 172.500 C 221.389 172.122, 221 173.656, 221 176.441 M 421.505 190.992 C 421.168 191.538, 421.352 192.775, 421.915 193.742 C 422.794 195.250, 422.944 195.109, 422.970 192.750 C 423.001 189.874, 422.539 189.319, 421.505 190.992 M 225.031 197 C 225.031 197.825, 225.467 199.175, 226 200 C 226.862 201.333, 226.969 201.333, 226.969 200 C 226.969 199.175, 226.533 197.825, 226 197 C 225.138 195.667, 225.031 195.667, 225.031 197 M 446.606 210.583 C 446.237 211.546, 446.339 212.739, 446.834 213.234 C 448.020 214.420, 449.058 211.713, 448.047 210.075 C 447.480 209.158, 447.102 209.292, 446.606 210.583 M 413 216.600 C 413 218.250, 412.467 220.132, 411.817 220.783 C 411.166 221.434, 410.922 222.255, 411.274 222.607 C 411.626 222.959, 412.694 221.612, 413.647 219.614 C 414.987 216.804, 415.110 215.710, 414.190 214.790 C 413.270 213.870, 413 214.281, 413 216.600 M 235.038 219.500 C 235.041 220.050, 235.965 221.625, 237.089 223 C 238.448 224.661, 238.787 224.828, 238.101 223.500 C 236.415 220.238, 235.030 218.430, 235.038 219.500 M 406.722 229.011 C 404.814 231.240, 404.461 232.451, 405.995 231.503 C 406.975 230.897, 409.366 227, 408.757 227 C 408.585 227, 407.669 227.905, 406.722 229.011 M 439.079 229.281 C 439.036 230.261, 438.325 231.322, 437.500 231.638 C 435.838 232.276, 435.448 234, 436.965 234 C 438.296 234, 440.238 230.155, 439.644 228.695 C 439.377 228.038, 439.122 228.302, 439.079 229.281 M 211.032 240.136 C 211.014 240.485, 211.672 242.060, 212.494 243.636 C 213.315 245.211, 213.990 245.799, 213.994 244.941 C 214 243.475, 211.100 238.771, 211.032 240.136 M 231.700 241.323 C 232.140 242.050, 234.525 244.390, 237 246.521 L 241.500 250.397 236.538 245.199 C 231.513 239.935, 230.249 238.922, 231.700 241.323 M 430.113 243.364 C 429.219 244.441, 429.200 245.005, 430.039 245.524 C 431.589 246.482, 433.104 244.786, 432.120 243.194 C 431.483 242.163, 431.082 242.197, 430.113 243.364 M 425.571 249.571 C 423.644 251.499, 423.632 251.667, 425.427 251.667 C 426.212 251.667, 427.070 250.842, 427.333 249.833 C 427.920 247.591, 427.599 247.544, 425.571 249.571 M 382.143 252.890 C 381.319 253.413, 381.176 253.991, 381.780 254.364 C 382.326 254.702, 383.329 254.308, 384.009 253.489 C 385.359 251.863, 384.300 251.524, 382.143 252.890 M 378 256.059 C 378 256.641, 377.597 256.869, 377.105 256.565 C 376.612 256.260, 375.937 256.721, 375.605 257.588 C 374.717 259.901, 374.854 260.204, 376.250 259.005 C 376.938 258.415, 378.400 257.286, 379.500 256.498 C 381.278 255.223, 381.305 255.060, 379.750 255.032 C 378.788 255.014, 378 255.477, 378 256.059 M 372 259.107 C 372 259.716, 371.325 259.955, 370.500 259.638 C 369.675 259.322, 369 259.525, 369 260.090 C 369 260.656, 368.550 260.840, 368 260.500 C 367.450 260.160, 367 260.332, 367 260.882 C 367 262.661, 368.789 263.053, 371.425 261.852 C 373.919 260.716, 375.029 258, 373 258 C 372.450 258, 372 258.498, 372 259.107 M 258.966 267.288 C 261.972 270.430, 264.545 273, 264.684 273 C 265.732 273, 262.924 269.771, 258.631 266.038 L 253.500 261.577 258.966 267.288 M 347 268.226 C 347 268.716, 346.550 268.840, 346 268.500 C 345.450 268.160, 345 268.359, 345 268.941 C 345 269.523, 344.352 270, 343.559 270 C 342.766 270, 341.841 270.449, 341.502 270.997 C 341.128 271.603, 341.987 271.559, 343.693 270.885 C 346.224 269.885, 347.889 269.522, 351.750 269.128 C 354.356 268.862, 352.865 267.333, 350 267.333 C 348.350 267.333, 347 267.735, 347 268.226 M 331.589 269.744 C 330.600 270.733, 330.934 272.159, 332 271.500 C 332.550 271.160, 333 271.374, 333 271.976 C 333 272.694, 333.601 272.761, 334.750 272.170 C 335.712 271.675, 337.063 271.472, 337.750 271.718 C 338.438 271.965, 339 271.679, 339 271.083 C 339 270.488, 338.663 269.969, 338.250 269.931 C 337.837 269.893, 336.303 269.703, 334.839 269.509 C 333.375 269.314, 331.913 269.420, 331.589 269.744 M 321 271.059 C 321 271.641, 321.450 271.840, 322 271.500 C 322.550 271.160, 323 271.385, 323 272 C 323 272.615, 323.498 272.810, 324.107 272.434 C 324.878 271.957, 324.803 271.490, 323.857 270.890 C 322.019 269.726, 321 269.786, 321 271.059 M 396.500 276.531 C 394.308 278.328, 393.956 278.991, 395.191 278.995 C 396.121 278.998, 397.165 278.543, 397.510 277.984 C 397.856 277.425, 398.557 277.226, 399.069 277.543 C 399.581 277.859, 400 277.191, 400 276.059 C 400 273.550, 400.164 273.528, 396.500 276.531 M 389.219 281.337 C 387.964 282.034, 387.199 282.865, 387.518 283.185 C 388.233 283.899, 392.981 281.788, 392.992 280.750 C 393.003 279.693, 391.861 279.870, 389.219 281.337 M 373.323 289.188 C 371.684 289.980, 371.424 290.538, 372.269 291.443 C 373.139 292.374, 373.798 292.297, 375.196 291.100 C 378.439 288.324, 377.369 287.232, 373.323 289.188 M 172.064 294.247 L 170.974 297.373 173.487 295.012 C 176.436 292.241, 176.396 292.366, 174.577 291.668 C 173.637 291.307, 172.783 292.183, 172.064 294.247 M 366.750 292.162 C 363.342 293.407, 363.201 294.500, 366.449 294.500 C 367.940 294.500, 369.076 293.816, 369.355 292.750 C 369.607 291.788, 369.742 291.036, 369.656 291.079 C 369.570 291.122, 368.262 291.610, 366.750 292.162 M 282.677 295.791 C 283.265 298.123, 285.181 298.365, 285.613 296.163 C 285.754 295.442, 285.637 295.387, 285.324 296.028 C 285.002 296.688, 284.274 296.406, 283.449 295.303 C 282.202 293.638, 282.144 293.675, 282.677 295.791 M 347.395 298.170 C 346.915 298.947, 347.209 299.134, 348.271 298.726 C 349.151 298.389, 350.089 298.650, 350.356 299.306 C 350.624 299.963, 350.878 299.712, 350.921 298.750 C 351.010 296.783, 348.507 296.371, 347.395 298.170 M 332.993 300.508 C 331.235 302.627, 334.581 303.098, 336.928 301.063 L 339.018 299.250 336.528 299.250 C 335.158 299.250, 333.568 299.816, 332.993 300.508 M 86.446 385.600 C 80.300 392.001, 75.728 399.942, 77.002 402.004 C 77.732 403.185, 78.009 403.089, 78.543 401.472 C 80.166 396.551, 82.841 392.064, 87.352 386.698 C 90.034 383.506, 92.065 380.769, 91.864 380.616 C 91.664 380.462, 89.226 382.705, 86.446 385.600 M 146.868 395.965 C 145.820 397.120, 145.546 398.254, 146.103 399.132 C 146.783 400.206, 146.973 400.124, 146.985 398.750 C 146.993 397.788, 147.503 397.113, 148.117 397.250 C 148.732 397.387, 149.367 396.712, 149.529 395.750 C 149.897 393.563, 148.980 393.637, 146.868 395.965 M 81 419.649 C 81 420.338, 81.635 421.260, 82.411 421.700 C 83.187 422.140, 85.437 423.973, 87.411 425.774 C 89.385 427.575, 91 428.765, 91 428.418 C 91 428.071, 88.750 425.674, 86 423.092 C 83.250 420.510, 81 418.961, 81 419.649 M 118.237 425.954 C 116.992 426.993, 115.417 428.046, 114.737 428.296 C 113.758 428.655, 113.760 429.026, 114.750 430.075 C 115.777 431.164, 116 431.076, 116 429.578 C 116 428.071, 116.260 427.971, 117.500 429 C 118.751 430.038, 119 429.901, 119 428.172 C 119 427.032, 119.787 425.641, 120.750 425.080 C 121.713 424.519, 122.050 424.062, 121.500 424.064 C 120.950 424.065, 119.481 424.916, 118.237 425.954 M 95 429.965 C 95 430.534, 95.675 431, 96.500 431 C 97.325 431, 98 431.540, 98 432.200 C 98 433.087, 98.293 433.107, 99.122 432.278 C 99.739 431.661, 100.864 431.394, 101.622 431.685 C 102.380 431.976, 103 431.777, 103 431.244 C 103 430.710, 101.987 430.353, 100.750 430.450 C 99.513 430.547, 97.713 430.245, 96.750 429.778 C 95.664 429.252, 95 429.322, 95 429.965" stroke="none" fill="#fcfcec" fill-rule="evenodd"/><path d="M 312 36.813 C 306.910 37.167, 304.696 38.576, 306.996 39.997 C 308.187 40.734, 308.089 40.894, 306.487 40.822 C 305.394 40.773, 303.600 41.088, 302.500 41.522 C 300.812 42.189, 300.875 41.975, 302.906 40.154 L 305.311 37.996 300.406 38.589 C 292.470 39.549, 289 40.914, 289 43.078 C 289 44.135, 288.502 45, 287.893 45 C 287.284 45, 287.039 44.340, 287.349 43.534 C 288.071 41.652, 283.791 42.375, 276.003 45.450 C 272.103 46.990, 270.506 48.159, 270.503 49.474 C 270.502 50.494, 269.866 51.540, 269.091 51.800 C 268.121 52.125, 267.877 51.762, 268.309 50.636 C 269.499 47.536, 267.235 48.508, 252.406 57.463 C 249.708 59.093, 247.350 60.780, 247.167 61.213 C 246.983 61.646, 246.414 62, 245.903 62 C 244.439 62, 234.029 70.366, 228.235 76.199 C 221.646 82.833, 214.300 93.267, 215.855 93.785 C 216.485 93.995, 217 94.634, 217 95.206 C 217 95.876, 216.512 95.840, 215.626 95.105 C 214.252 93.965, 212.796 95.464, 209.414 101.500 C 199.803 118.654, 195.587 129.614, 192.474 145.532 C 189.954 158.423, 189.193 173.383, 191 174.500 C 191.550 174.840, 191.968 175.879, 191.930 176.809 C 191.872 178.201, 191.696 178.147, 190.934 176.500 C 190.318 175.170, 190.186 177.012, 190.539 182 C 191.168 190.883, 192.881 201.880, 193.970 204.033 C 194.397 204.876, 195.056 207.126, 195.435 209.033 C 196.657 215.176, 198.183 218.296, 199.244 216.817 C 199.933 215.856, 200.031 215.986, 199.607 217.300 C 199.286 218.290, 200.154 221.879, 201.534 225.276 C 204.432 232.409, 212.008 245.326, 212.818 244.516 C 213.120 244.214, 212.834 243.434, 212.183 242.783 C 211.532 242.133, 211.014 241.128, 211.032 240.550 C 211.077 239.045, 214 243.119, 214 244.688 C 214 246.077, 199.543 262.799, 183.638 279.805 C 174.047 290.060, 173.040 291.513, 175.059 292.186 C 175.642 292.381, 174.938 293.649, 173.495 295.005 L 170.871 297.470 171.921 294.707 C 172.871 292.210, 172.799 292.037, 171.173 292.907 C 170.184 293.437, 167.404 296.037, 164.994 298.685 C 162.585 301.333, 156.254 308.225, 150.926 314 C 137.284 328.786, 135.897 330.567, 136.601 332.402 C 136.938 333.281, 136.716 334, 136.107 334 C 135.498 334, 135 333.466, 135 332.813 C 135 332.159, 131.762 335.197, 127.805 339.563 C 123.847 343.928, 116.524 351.550, 111.531 356.500 C 96.347 371.553, 80.504 389.281, 78.615 393.331 C 76.330 398.232, 76.987 399.037, 79.486 394.397 C 81.226 391.164, 92 379.258, 92 380.566 C 92 380.878, 89.980 383.473, 87.512 386.332 C 83.044 391.508, 79 398.311, 79 400.652 C 79 401.329, 78.474 402.207, 77.830 402.605 C 77.036 403.096, 76.872 402.776, 77.319 401.612 C 77.710 400.593, 77.576 400.144, 76.989 400.507 C 75.312 401.543, 75.893 409.640, 78.059 415.429 C 79.395 418.999, 81.697 422.437, 84.609 425.213 C 89.589 429.958, 93.637 432.103, 92.622 429.457 C 92.278 428.560, 92.443 428.156, 93.011 428.507 C 93.555 428.843, 94 429.714, 94 430.442 C 94 431.171, 94.900 432.002, 96 432.290 C 97.100 432.577, 98 432.405, 98 431.906 C 98 431.408, 97.325 431, 96.500 431 C 95.675 431, 95 430.534, 95 429.965 C 95 429.322, 95.664 429.252, 96.750 429.778 C 97.712 430.245, 99.512 430.547, 100.750 430.450 C 101.987 430.353, 103 430.681, 103 431.180 C 103 431.679, 102.259 431.955, 101.354 431.794 C 100.448 431.632, 99.549 431.950, 99.355 432.500 C 99.162 433.050, 100.782 433.622, 102.955 433.771 C 106.066 433.984, 107.138 433.611, 107.989 432.021 C 109.136 429.878, 111 429.282, 111 431.059 C 111 431.641, 110.550 431.840, 110 431.500 C 109.450 431.160, 109 431.544, 109 432.354 C 109 433.575, 109.513 433.633, 111.998 432.695 C 113.980 431.946, 114.833 431.044, 114.514 430.032 C 114.212 429.072, 115.240 427.762, 117.266 426.524 C 121.413 423.991, 123.033 423.361, 120.612 425.222 C 119.574 426.021, 118.949 427.310, 119.223 428.087 C 119.549 429.014, 123.290 425.715, 130.094 418.500 C 135.800 412.450, 143.850 404.080, 147.984 399.900 C 158.452 389.316, 165.247 382.031, 182.403 363 C 190.583 353.925, 201.190 342.675, 205.972 338 C 210.755 333.325, 218.863 324.775, 223.991 319 C 229.118 313.225, 235.865 305.800, 238.984 302.500 C 242.103 299.200, 246.955 294.025, 249.767 291 L 254.879 285.500 263.341 289.750 C 267.995 292.088, 272.432 294, 273.201 294 C 273.971 294, 275.027 294.403, 275.550 294.895 C 276.072 295.387, 278.030 296.112, 279.900 296.507 C 282.929 297.147, 283.229 297.022, 282.648 295.362 C 282.254 294.238, 282.812 294.577, 284.056 296.216 C 285.353 297.925, 287.485 299.178, 289.808 299.598 C 294.615 300.465, 296.512 300.869, 299.250 301.606 C 303.477 302.744, 333.307 303.306, 332.645 302.235 C 331.803 300.872, 333.948 299.383, 336.987 299.221 C 338.849 299.122, 339.108 299.315, 338.016 299.990 C 335.308 301.664, 337.958 302.330, 343.671 301.412 C 346.795 300.911, 349.535 299.937, 349.759 299.249 C 350.030 298.419, 349.580 298.224, 348.420 298.669 C 347.228 299.127, 346.902 298.968, 347.395 298.170 C 348.433 296.491, 351 296.726, 351 298.500 C 351 299.325, 351.477 300, 352.059 300 C 352.641 300, 352.912 299.663, 352.661 299.250 C 352.409 298.837, 354.212 298.381, 356.668 298.236 C 361.161 297.970, 368 295.676, 368 294.434 C 368 294.067, 367.100 294.002, 366 294.290 C 362.896 295.102, 363.645 293.320, 366.882 292.191 C 369.501 291.278, 369.716 291.370, 369.236 293.207 C 368.766 295.001, 368.947 295.099, 370.854 294.078 C 373.208 292.818, 373.724 291.023, 371.750 290.960 C 371.063 290.938, 371.777 290.228, 373.338 289.382 C 376.664 287.580, 378.388 288.512, 375.557 290.582 C 374.491 291.362, 374.169 292, 374.842 292 C 377.902 292, 400.456 278.789, 399.325 277.659 C 398.973 277.306, 398.095 277.506, 397.376 278.103 C 396.656 278.700, 395.576 279.025, 394.976 278.825 C 394.376 278.625, 395.260 277.444, 396.942 276.201 C 399.368 274.407, 400 274.256, 400 275.470 C 400 277.540, 401.240 277.394, 404 275 C 405.268 273.900, 406.740 273, 407.270 273 C 407.800 273, 408.016 271.864, 407.751 270.476 C 407.485 269.088, 407.658 267.711, 408.134 267.417 C 408.610 267.123, 409 267.541, 409 268.347 C 409 271.466, 413.691 268.587, 420.689 261.174 C 426.073 255.471, 427.614 253.240, 426.826 252.290 C 426.247 251.593, 425.380 251.265, 424.898 251.563 C 424.417 251.860, 424.278 251.440, 424.589 250.629 C 425.421 248.460, 428.051 247.659, 427.310 249.801 C 426.856 251.112, 427.249 250.998, 429.029 249.305 C 430.862 247.560, 431.093 246.817, 430.155 245.687 C 429.234 244.577, 429.307 243.990, 430.488 243.010 C 431.527 242.148, 432 242.106, 432 242.878 C 432 245.708, 434.170 243.373, 438.160 236.250 C 440.547 231.988, 442.749 227.825, 443.053 227 C 443.357 226.175, 444.547 223.475, 445.696 221 C 448.105 215.813, 449.660 210.737, 448.191 212.857 C 446.973 214.613, 445.763 212.782, 446.636 210.506 C 447.137 209.201, 447.456 209.120, 448.085 210.137 C 448.528 210.855, 449.191 211.142, 449.558 210.775 C 450.697 209.636, 452.804 197.997, 451.965 197.478 C 451.528 197.208, 450.941 197.452, 450.660 198.019 C 450.380 198.586, 450.285 198.476, 450.450 197.775 C 450.615 197.074, 451.266 196.616, 451.897 196.757 C 454.470 197.335, 455.276 191.114, 455.365 170 C 455.462 146.747, 454.474 139.949, 448.571 123.248 C 445.196 113.700, 436.226 97.217, 429.714 88.598 C 426.847 84.801, 423.980 80.806, 423.344 79.719 C 421.487 76.546, 409.678 65, 408.290 65 C 407.593 65, 404.360 62.975, 401.105 60.500 C 397.851 58.025, 394.878 56, 394.498 56 C 394.119 56, 392.502 55.069, 390.904 53.932 C 389.307 52.794, 388 52.189, 388 52.587 C 388 52.985, 387.212 52.610, 386.250 51.755 C 384.716 50.392, 377.598 47, 376.271 47 C 376.004 47, 376.054 47.698, 376.382 48.552 C 376.723 49.442, 376.555 49.843, 375.989 49.493 C 375.445 49.157, 375 48.302, 375 47.593 C 375 46.160, 369.858 43.707, 363 41.869 C 360.525 41.206, 358.050 40.540, 357.500 40.390 C 355.105 39.736, 351.277 38.955, 348.500 38.555 C 346.850 38.316, 343.369 37.809, 340.764 37.427 C 337.493 36.947, 335.552 37.127, 334.491 38.007 C 333.206 39.074, 333.054 39.023, 333.561 37.702 C 334.089 36.325, 333.024 36.145, 325.334 36.310 C 320.475 36.415, 314.475 36.641, 312 36.813 M 385 53.479 C 385 53.639, 386.111 54.498, 387.470 55.388 C 389.404 56.655, 389.823 56.702, 389.401 55.602 C 388.955 54.441, 385 52.533, 385 53.479 M 255.441 58.468 C 254.374 59.276, 252.713 59.951, 251.750 59.968 C 250.787 59.986, 250 60.681, 250 61.514 C 250 62.678, 250.927 62.415, 254 60.381 C 257.544 58.036, 258.675 57, 257.691 57 C 257.521 57, 256.509 57.661, 255.441 58.468 M 241 67.667 C 241 68.400, 241.402 69, 241.893 69 C 242.384 69, 243.016 68.400, 243.298 67.667 C 243.579 66.933, 243.177 66.333, 242.405 66.333 C 241.632 66.333, 241 66.933, 241 67.667 M 307.750 67.798 C 306.788 67.990, 306 68.550, 306 69.042 C 306 69.534, 306.629 69.696, 307.399 69.400 C 308.168 69.105, 309.070 69.304, 309.403 69.843 C 309.742 70.391, 308.133 71.136, 305.754 71.532 C 303.414 71.922, 300.507 72.418, 299.294 72.632 C 294.595 73.465, 279.682 78.996, 275.449 81.477 C 271.901 83.557, 271 83.772, 271 82.542 C 271 80.855, 269.453 80.458, 268.553 81.915 C 268.242 82.418, 268.553 83.031, 269.244 83.278 C 269.935 83.524, 270.173 84.077, 269.774 84.506 C 269.375 84.934, 268.298 84.662, 267.380 83.900 C 265.899 82.671, 265.784 82.745, 266.360 84.559 C 266.891 86.231, 265.732 87.572, 259.975 91.948 C 256.107 94.889, 251.493 99.100, 249.721 101.305 C 242.742 109.994, 241.061 111.617, 241.029 109.691 C 241.013 108.688, 240.533 108.171, 239.951 108.530 C 239.232 108.975, 239.263 109.612, 240.050 110.561 C 240.937 111.629, 240.702 112.747, 239.017 115.472 C 236.903 118.893, 235 120.075, 235 117.969 C 235 117.401, 235.675 116.678, 236.500 116.362 C 237.325 116.045, 238 114.830, 238 113.661 C 238 111.934, 237.510 112.257, 235.383 115.387 C 233.481 118.186, 233.096 119.441, 233.974 119.984 C 234.868 120.536, 234.479 122.262, 232.483 126.615 C 227.262 137.998, 223.965 150.795, 223.312 162.210 C 222.974 168.107, 222.316 172.695, 221.849 172.407 C 221.382 172.118, 221 173.934, 221 176.441 C 221 179.692, 221.404 181, 222.406 181 C 223.335 181, 224.046 182.696, 224.500 185.999 C 224.878 188.748, 225.595 191.250, 226.094 191.558 C 226.592 191.866, 227 193.163, 227 194.440 C 227 200.725, 235.917 219.062, 243.717 228.818 C 249.844 236.481, 259.177 246, 260.564 246 C 261.183 246, 262.547 246.954, 263.595 248.120 C 267.537 252.506, 286.602 263.156, 293.060 264.579 C 296.418 265.319, 297.200 265.525, 299.500 266.272 C 300.600 266.629, 302.850 267.188, 304.500 267.513 C 306.150 267.839, 308.175 268.272, 309 268.476 C 309.825 268.680, 312.863 268.881, 315.750 268.923 C 319.806 268.983, 321 269.355, 321 270.559 C 321 271.416, 321.412 271.864, 321.915 271.553 C 322.418 271.242, 323.010 271.531, 323.232 272.195 C 323.544 273.132, 323.799 273.134, 324.376 272.201 C 324.784 271.540, 324.641 271, 324.059 271 C 323.477 271, 323 270.541, 323 269.980 C 323 268.960, 327.069 269.307, 328.984 270.490 C 329.543 270.835, 330 270.641, 330 270.059 C 330 269.477, 330.436 269, 330.969 269 C 331.501 269, 331.650 269.749, 331.299 270.664 C 330.869 271.783, 331.043 272.091, 331.830 271.605 C 332.474 271.207, 333 271.374, 333 271.976 C 333 272.694, 333.601 272.761, 334.750 272.170 C 335.712 271.675, 337.063 271.472, 337.750 271.718 C 338.438 271.965, 339 271.679, 339 271.083 C 339 270.488, 338.475 270, 337.833 270 C 335.403 270, 338.020 268.778, 341.434 268.317 C 343.620 268.023, 345 268.255, 345 268.918 C 345 269.513, 344.352 270, 343.559 270 C 342.766 270, 341.851 270.432, 341.525 270.960 C 341.168 271.538, 342.115 271.507, 343.905 270.883 C 346.051 270.135, 346.719 269.381, 346.305 268.173 C 345.792 266.678, 345.878 266.685, 347.115 268.234 C 348.544 270.024, 353 269.708, 353 267.816 C 353 267.293, 352.100 267.151, 351 267.500 C 349.853 267.864, 349 267.680, 349 267.067 C 349 266.480, 349.788 265.985, 350.750 265.966 C 351.712 265.947, 355.698 264.669, 359.607 263.127 C 365.575 260.771, 366.858 260.551, 367.614 261.750 C 368.360 262.933, 368.987 262.963, 371.257 261.929 C 372.766 261.241, 374 260.076, 374 259.339 C 374 257.649, 372.316 257.583, 371.720 259.250 C 371.475 259.938, 370.956 260.206, 370.567 259.846 C 370.178 259.487, 371.982 257.732, 374.576 255.947 C 378.388 253.325, 379.633 252.914, 381.061 253.806 C 382.433 254.663, 383.127 254.552, 384.157 253.311 C 385.323 251.906, 385.212 251.798, 383.242 252.423 C 381.875 252.857, 381 252.718, 381 252.067 C 381 251.480, 381.424 251, 381.943 251 C 382.462 251, 385.803 248.526, 389.367 245.502 C 396.018 239.860, 406.388 227.007, 410.231 219.643 C 411.828 216.582, 412.494 215.970, 412.779 217.298 C 412.991 218.287, 412.614 219.760, 411.940 220.572 C 411.266 221.384, 410.971 222.304, 411.284 222.617 C 412.255 223.588, 415.135 217, 414.548 215.151 C 414.243 214.189, 415.344 209.699, 416.996 205.172 C 418.648 200.646, 420 196.055, 420 194.971 C 420 192.781, 421.552 192.302, 422.338 194.250 C 422.615 194.938, 422.878 194.236, 422.921 192.691 C 422.975 190.788, 422.623 190.115, 421.830 190.605 C 421.012 191.111, 420.882 190.752, 421.399 189.414 C 421.806 188.361, 422.402 181.961, 422.724 175.191 C 423.063 168.057, 423.658 163.433, 424.139 164.191 C 424.596 164.911, 424.976 165.028, 424.985 164.450 C 424.993 163.872, 424.544 162.944, 423.988 162.388 C 423.431 161.831, 422.294 157.803, 421.460 153.438 C 419.064 140.890, 413.092 125.249, 407.868 117.841 C 406.801 116.327, 406.251 114.389, 406.591 113.341 C 406.999 112.084, 406.901 111.898, 406.284 112.753 C 405.631 113.656, 403.388 111.657, 398.242 105.582 C 394.317 100.948, 387.707 94.644, 383.553 91.571 C 379.399 88.499, 376 85.340, 376 84.552 C 376 83.763, 375.555 82.843, 375.011 82.507 C 374.445 82.157, 374.277 82.558, 374.618 83.448 C 375.244 85.077, 373.514 85.641, 372.572 84.116 C 372.106 83.363, 363.475 78.796, 362 78.522 C 361.725 78.471, 360.600 77.952, 359.500 77.368 C 358.400 76.785, 355.250 75.744, 352.500 75.056 C 349.750 74.368, 346.825 73.556, 346 73.251 C 342.215 71.855, 334.073 70.543, 326.281 70.073 C 325.611 70.033, 325.285 69.422, 325.556 68.715 C 325.853 67.941, 325.209 67.366, 323.939 67.270 C 322.444 67.158, 321.996 67.547, 322.403 68.608 C 322.876 69.840, 322.054 70.051, 317.739 69.802 C 314.831 69.634, 312.579 69.039, 312.679 68.464 C 312.859 67.417, 310.956 67.160, 307.750 67.798 M 237.250 70.220 C 236.012 70.817, 235 71.916, 235 72.661 C 235 73.762, 235.372 73.785, 236.981 72.780 C 238.512 71.823, 240.789 68.736, 239.719 69.068 C 239.598 69.105, 238.488 69.624, 237.250 70.220 M 413.958 74.443 C 416.410 76.950, 418.600 79, 418.824 79 C 419.675 79, 412.430 71.170, 411 70.544 C 410.175 70.182, 411.506 71.937, 413.958 74.443 M 287.503 72.995 C 287.209 73.472, 287.494 74.187, 288.138 74.585 C 288.923 75.070, 289.039 74.872, 288.490 73.985 C 287.899 73.028, 288.125 72.834, 289.304 73.286 C 290.202 73.631, 291.144 73.576, 291.399 73.164 C 291.653 72.752, 291.001 72.350, 289.950 72.271 C 288.899 72.192, 287.798 72.518, 287.503 72.995 M 303.601 84.063 C 299.807 84.503, 296.382 85.383, 295.989 86.017 C 295.597 86.652, 295.102 87.080, 294.888 86.969 C 294.675 86.857, 291.350 88.248, 287.500 90.058 C 280.132 93.523, 275 96.848, 275 98.157 C 275 99.155, 278.182 98.066, 279.520 96.610 C 281.031 94.965, 285.007 92.865, 284.952 93.742 C 284.888 94.777, 270.024 104.357, 269.420 103.753 C 269.155 103.488, 270.077 102.525, 271.469 101.612 C 272.861 100.700, 274 99.504, 274 98.954 C 274 97.790, 269.061 100.764, 267.302 102.986 C 263.820 107.386, 261.842 112.926, 262.081 117.608 C 262.549 126.801, 267.022 131.959, 275.999 133.657 C 279.928 134.400, 284.817 133.120, 285.317 131.217 C 285.740 129.608, 285.775 129.610, 285.884 131.234 C 285.994 132.879, 286.192 132.879, 289.750 131.234 C 291.813 130.280, 293.725 129.264, 294 128.975 C 294.275 128.686, 299.225 126.265, 305 123.594 C 310.775 120.924, 316.212 118.122, 317.081 117.367 C 317.951 116.613, 318.931 116.264, 319.259 116.592 C 320.226 117.559, 325.239 108.881, 326.210 104.559 C 327.571 98.502, 326.268 93.302, 322.284 88.892 C 320.358 86.761, 318.412 85.245, 317.960 85.525 C 317.508 85.804, 316.856 85.575, 316.510 85.016 C 315.728 83.751, 312 83.668, 312 84.917 C 312 85.421, 312.563 86.024, 313.250 86.257 C 313.938 86.490, 312.604 86.683, 310.286 86.686 C 307.968 86.690, 306.319 86.293, 306.620 85.805 C 306.922 85.318, 308.030 85.192, 309.084 85.527 C 310.416 85.949, 311 85.657, 311 84.567 C 311 83.705, 310.887 83.059, 310.750 83.131 C 310.613 83.204, 307.396 83.623, 303.601 84.063 M 262 86.500 C 261.140 87.536, 261.102 88, 261.878 88 C 262.495 88, 263 87.523, 263 86.941 C 263 86.359, 263.450 86.160, 264 86.500 C 264.550 86.840, 265 86.641, 265 86.059 C 265 84.530, 263.446 84.758, 262 86.500 M 220.031 87.463 C 219.373 88.255, 218.986 89.690, 219.171 90.652 C 219.450 92.100, 219.806 91.946, 221.243 89.752 C 223.082 86.946, 222.060 85.017, 220.031 87.463 M 252.056 94.440 C 249.877 96.760, 249.866 96.848, 251.816 96.338 C 252.941 96.044, 254.128 95.108, 254.454 94.258 C 255.411 91.764, 254.505 91.833, 252.056 94.440 M 211.664 101.750 C 210.424 104.475, 210.364 104.953, 211.444 103.500 C 212.262 102.400, 213.397 100.956, 213.966 100.292 C 215.210 98.840, 215.290 98, 214.185 98 C 213.737 98, 212.602 99.688, 211.664 101.750 M 310.500 117.635 C 304.518 120.180, 301.490 122.074, 304.119 121.626 C 304.879 121.497, 306.905 120.646, 308.623 119.735 C 310.341 118.825, 311.923 118.256, 312.138 118.471 C 312.354 118.687, 313.648 118.004, 315.015 116.954 C 318.229 114.485, 317.726 114.560, 310.500 117.635 M 202.667 117.667 C 202.300 118.033, 202.029 119.271, 202.063 120.417 C 202.122 122.332, 202.204 122.307, 203.085 120.105 C 204.064 117.657, 203.861 116.472, 202.667 117.667 M 225.031 197 C 225.031 197.825, 225.467 199.175, 226 200 C 226.862 201.333, 226.969 201.333, 226.969 200 C 226.969 199.175, 226.533 197.825, 226 197 C 225.138 195.667, 225.031 195.667, 225.031 197 M 235.038 219.500 C 235.041 220.050, 235.965 221.625, 237.089 223 C 238.448 224.661, 238.787 224.828, 238.101 223.500 C 236.415 220.238, 235.030 218.430, 235.038 219.500 M 406.722 229.011 C 404.814 231.240, 404.461 232.451, 405.995 231.503 C 406.975 230.897, 409.366 227, 408.757 227 C 408.585 227, 407.669 227.905, 406.722 229.011 M 439.079 229.281 C 439.036 230.261, 438.325 231.322, 437.500 231.638 C 435.838 232.276, 435.448 234, 436.965 234 C 438.296 234, 440.238 230.155, 439.644 228.695 C 439.377 228.038, 439.122 228.302, 439.079 229.281 M 231.700 241.323 C 232.140 242.050, 234.525 244.390, 237 246.521 L 241.500 250.397 236.538 245.199 C 231.513 239.935, 230.249 238.922, 231.700 241.323 M 378 256.059 C 378 256.641, 377.597 256.869, 377.105 256.565 C 376.612 256.260, 375.937 256.721, 375.605 257.588 C 374.717 259.901, 374.854 260.204, 376.250 259.005 C 376.938 258.415, 378.400 257.286, 379.500 256.498 C 381.278 255.223, 381.305 255.060, 379.750 255.032 C 378.788 255.014, 378 255.477, 378 256.059 M 258.966 267.288 C 261.972 270.430, 264.545 273, 264.684 273 C 265.732 273, 262.924 269.771, 258.631 266.038 L 253.500 261.577 258.966 267.288 M 389.219 281.337 C 387.964 282.034, 387.199 282.865, 387.518 283.185 C 388.233 283.899, 392.981 281.788, 392.992 280.750 C 393.003 279.693, 391.861 279.870, 389.219 281.337 M 146.868 395.965 C 145.820 397.120, 145.546 398.254, 146.103 399.132 C 146.783 400.206, 146.973 400.124, 146.985 398.750 C 146.993 397.788, 147.503 397.113, 148.117 397.250 C 148.732 397.387, 149.367 396.712, 149.529 395.750 C 149.897 393.563, 148.980 393.637, 146.868 395.965 M 81 419.649 C 81 420.338, 81.635 421.260, 82.411 421.700 C 83.187 422.140, 85.437 423.973, 87.411 425.774 C 89.385 427.575, 91 428.765, 91 428.418 C 91 428.071, 88.750 425.674, 86 423.092 C 83.250 420.510, 81 418.961, 81 419.649" stroke="none" fill="#f4f3dc" fill-rule="evenodd"/></svg>