<svg xmlns="http://www.w3.org/2000/svg" width="1280" height="1464" viewBox="0 0 1280 1464" version="1.1"><path d="M 574 687.284 C 553.645 690.186, 533.101 696.513, 516.595 704.962 C 493.215 716.930, 477.653 729.355, 458.932 751 C 450.457 760.799, 436.713 780.951, 431.310 791.500 C 420.932 811.766, 412.565 837.459, 409.493 858.500 C 408.610 864.550, 407.442 871.750, 406.897 874.500 C 405.886 879.605, 405.551 911.712, 406.437 918.659 C 408.640 935.945, 409.381 940.602, 411.179 948.500 C 418.301 979.775, 434.887 1013.506, 453.500 1034.573 C 456.800 1038.308, 464.675 1046.494, 471 1052.765 C 484.149 1065.801, 491.784 1070.916, 514.500 1081.908 C 522.750 1085.900, 530.274 1089.575, 531.221 1090.074 C 532.167 1090.572, 539.142 1093.249, 546.721 1096.022 C 554.299 1098.795, 561.400 1101.494, 562.500 1102.019 C 563.600 1102.545, 566.975 1103.612, 570 1104.391 C 573.025 1105.171, 576.850 1106.351, 578.500 1107.015 C 581.512 1108.227, 583.059 1108.664, 601.500 1113.523 C 607 1114.973, 613.075 1116.578, 615 1117.092 C 616.925 1117.605, 620.525 1118.461, 623 1118.994 C 625.475 1119.526, 630.650 1120.673, 634.500 1121.542 C 642.743 1123.402, 648.917 1124.557, 658.500 1126.031 C 662.350 1126.623, 666.852 1127.523, 668.504 1128.030 C 672.737 1129.329, 713.506 1134.639, 725.500 1135.454 C 728.800 1135.678, 737.575 1136.365, 745 1136.979 C 780.105 1139.886, 844.611 1138.227, 861 1133.998 C 862.925 1133.501, 865.625 1132.868, 867 1132.591 C 881.462 1129.678, 919.771 1116.605, 931.500 1110.580 C 946.915 1102.661, 963.844 1091.107, 973.299 1082.053 C 976.488 1078.999, 979.515 1076.354, 980.025 1076.175 C 982.268 1075.387, 1004.854 1047.684, 1008.527 1041.213 C 1009.374 1039.721, 1011.624 1036.025, 1013.527 1033 C 1017.745 1026.293, 1025.884 1009.826, 1029.344 1001 C 1044.189 963.124, 1049.199 915.696, 1042.463 876.800 C 1040.684 866.533, 1035.870 848.051, 1033.601 842.782 C 1032.720 840.737, 1032 838.252, 1032 837.260 C 1032 836.267, 1028.048 827.591, 1023.219 817.978 C 1003.834 779.397, 977.241 752.522, 941.779 735.674 C 912.181 721.612, 877.172 717.025, 846 723.126 C 818.660 728.476, 790.493 741.753, 768.017 759.884 C 762.241 764.544, 743 783.945, 743 785.110 C 743 785.599, 742.367 786, 741.594 786 C 740.821 786, 738.807 783.188, 737.119 779.750 C 724.041 753.125, 699.300 726.141, 673.379 710.233 C 665.189 705.206, 643.945 695, 641.672 695 C 640.989 695, 637.746 694.032, 634.465 692.848 C 628.603 690.734, 626.477 690.302, 610.540 687.990 C 600.869 686.587, 581.513 686.213, 574 687.284 M 579 703.087 C 563.496 704.395, 539.127 712.442, 529.500 719.432 C 527.850 720.630, 524.351 722.849, 521.725 724.362 C 510.078 731.074, 489.906 750.898, 476.305 769 C 460.444 790.109, 443.965 827.737, 438.641 855 C 437.835 859.125, 436.882 863.850, 436.522 865.500 C 435.041 872.292, 433.303 891.279, 433.113 902.728 C 432.507 939.394, 442.127 975.530, 459.524 1001.932 C 466.128 1011.956, 480.431 1026.717, 489.499 1032.870 C 530.995 1061.025, 584.798 1052.578, 629.399 1010.905 C 639.173 1001.772, 654.844 982.990, 659.500 974.826 C 660.050 973.862, 662.808 969.119, 665.629 964.287 C 670.985 955.111, 676.829 943.177, 679.573 935.816 C 687.919 913.422, 689.954 906.386, 693.115 889 C 704.737 825.078, 689.587 764.041, 653.665 730.068 C 632.652 710.194, 606.549 700.762, 579 703.087 M 569.177 730.557 C 561.284 732.320, 545.491 738.563, 541.500 741.498 C 539.850 742.711, 536.925 744.502, 535 745.478 C 526.846 749.613, 511.461 763.678, 501.064 776.501 C 489.240 791.085, 476.685 813.420, 470.993 830 C 469.766 833.575, 468.184 837.850, 467.479 839.500 C 465.320 844.551, 461.508 860.827, 458.813 876.500 C 457.461 884.361, 457.104 915.055, 458.248 925 C 460.283 942.687, 464.503 957.863, 471.310 971.973 C 487.040 1004.577, 512.211 1022.406, 543.237 1022.920 C 560.742 1023.210, 573.726 1019.448, 591.276 1009.001 C 615.775 994.417, 636.075 971.384, 650.852 941.406 C 657.547 927.826, 666.465 903.067, 667.388 895.500 C 667.657 893.300, 668.310 890.150, 668.839 888.500 C 672.855 875.979, 673.908 835.211, 670.674 817.500 C 667.019 797.493, 659.740 779.019, 649.316 763.295 C 643.890 755.111, 630.106 742.704, 621.244 738.028 C 609.656 731.915, 600.655 729.640, 587 729.371 C 579.914 729.232, 573.073 729.687, 569.177 730.557 M 866.500 741.939 C 851.973 743.369, 829.760 753.457, 815.777 764.976 C 807.075 772.142, 794.042 786.467, 788.201 795.282 C 777.058 812.100, 766.452 837.116, 762.563 855.755 C 760.560 865.355, 758.244 880.324, 757.496 888.500 C 756.580 898.529, 756.931 924.281, 758.096 932.500 C 758.642 936.350, 759.286 941.300, 759.527 943.500 C 759.985 947.677, 760.934 952.130, 764.214 965.500 C 765.294 969.900, 766.325 974.175, 766.505 975 C 767.371 978.967, 775.156 999.288, 778.189 1005.500 C 789.545 1028.756, 806.064 1051.011, 820.555 1062.576 C 823.825 1065.186, 827.907 1068.633, 829.626 1070.236 C 837.245 1077.342, 858.707 1087.300, 874.500 1091.057 C 882.468 1092.952, 885.304 1093.129, 899.236 1092.596 C 908.909 1092.226, 916.423 1091.451, 918.736 1090.583 C 920.806 1089.806, 923.843 1088.872, 925.484 1088.508 C 935.418 1086.300, 955.490 1074.022, 967.499 1062.807 C 980.735 1050.446, 996.650 1027.139, 1002.541 1011.488 C 1003.884 1007.920, 1005.433 1004.213, 1005.983 1003.250 C 1008.103 999.541, 1015.534 971.543, 1016.399 964 C 1016.620 962.075, 1017.057 958.925, 1017.369 957 C 1019.325 944.943, 1019.672 910.408, 1017.936 900.500 C 1017.358 897.200, 1016.664 892.475, 1016.394 890 C 1015.657 883.257, 1010.520 862.512, 1006.955 851.881 C 1004.131 843.459, 997.550 827.555, 994.845 822.613 C 988.188 810.451, 982.024 800.827, 976.198 793.500 C 969.704 785.332, 953.657 769.103, 949.426 766.424 C 947.817 765.406, 944.700 763.162, 942.500 761.439 C 937.904 757.839, 923.167 750.142, 914.793 746.966 C 901.360 741.873, 884.745 740.144, 866.500 741.939 M 570.500 757.468 C 569.950 757.638, 565.900 758.776, 561.500 759.996 C 546.305 764.210, 531.033 773.785, 517.500 787.581 C 510.308 794.913, 500.211 808.203, 497.316 814.148 C 496.419 815.991, 494.909 818.625, 493.962 820 C 493.015 821.375, 490.438 826.775, 488.235 832 C 476.742 859.262, 472.659 885.534, 475.648 913 C 477.739 932.212, 482.390 946.632, 491.291 961.500 C 496.988 971.017, 509.735 983.718, 518.410 988.524 C 539.005 999.931, 564.290 999.444, 587 987.201 C 631.097 963.429, 660.520 905.108, 656.975 848.500 C 655.639 827.167, 651.576 812.203, 642.721 796 C 635.999 783.699, 623.023 770.337, 612.387 764.763 C 603.075 759.882, 590.889 756.994, 580 757.086 C 575.325 757.126, 571.050 757.297, 570.500 757.468 M 871.500 767.945 C 867.650 768.357, 863.375 769.161, 862 769.732 C 860.625 770.303, 857.025 771.485, 854 772.359 C 840.041 776.389, 819.427 793.607, 807.862 810.898 C 796.238 828.277, 787.861 850.797, 783.460 876.500 C 781.244 889.438, 780.638 924.164, 782.473 933 C 782.759 934.375, 783.246 937.075, 783.556 939 C 785.775 952.766, 789.116 966.139, 793.051 977 C 798.221 991.273, 800.168 995.460, 807.486 1008.051 C 816.588 1023.712, 824.817 1033.482, 838.500 1044.872 C 842.900 1048.534, 848.300 1052.689, 850.500 1054.105 C 855.752 1057.484, 870.190 1063.604, 876.500 1065.125 C 883.901 1066.909, 905.123 1066.635, 913.319 1064.649 C 944.864 1057.006, 972.100 1027.492, 985.586 986.337 C 991.111 969.474, 992.057 964.642, 993.970 943.500 C 995.023 931.861, 994.629 901.826, 993.396 899.832 C 992.809 898.883, 990.926 887.078, 990.870 884 C 990.855 883.175, 990.457 881.600, 989.986 880.500 C 989.514 879.400, 988.423 875.541, 987.561 871.923 C 982.212 849.477, 968.651 822.749, 953.608 805 C 948.265 798.697, 931.298 783, 929.828 783 C 929.428 783, 927.165 781.694, 924.800 780.098 C 910.617 770.526, 890.425 765.922, 871.500 767.945 M 541.221 794.750 C 531.930 798.550, 521.803 808.768, 519.169 817 C 517.420 822.466, 517.477 834.091, 519.270 837.538 C 524.182 846.984, 536.661 850.721, 546.934 845.823 C 549.445 844.626, 554.511 840.605, 558.192 836.889 C 565.711 829.296, 568 823.952, 568 813.990 C 568 809.339, 567.449 807.511, 564.878 803.629 C 558.516 794.025, 550.422 790.987, 541.221 794.750 M 874.500 796.009 C 864.386 796.835, 859.465 798.239, 850.037 802.989 C 815.134 820.571, 793.105 866.193, 795.328 916.293 C 796.544 943.685, 801.960 964.188, 813.678 985.750 C 822.586 1002.141, 831.078 1012.020, 845.500 1022.770 C 856.454 1030.936, 862.615 1034.055, 874 1037.199 C 887.931 1041.047, 907.908 1039.169, 920.301 1032.847 C 946.043 1019.714, 965.031 993.048, 972.884 959 C 975.744 946.600, 976.515 938.327, 976.379 921.500 C 976.134 891.205, 968.391 864.635, 952.484 839.500 C 949.041 834.060, 938.292 821.530, 933.857 817.787 C 924.542 809.925, 921.205 807.643, 912.926 803.474 C 908.210 801.100, 902.585 798.837, 900.426 798.447 C 898.267 798.056, 895.825 797.402, 895 796.992 C 892.534 795.768, 883.028 795.312, 874.500 796.009 M 846.185 828.563 C 837.179 833.738, 829.913 843.913, 827.993 854.039 C 827.109 858.700, 827.318 861.061, 829.566 871.752 C 830.825 877.742, 840.437 883.417, 848.882 883.156 C 856.985 882.905, 865.725 875.593, 872.025 863.793 C 875.272 857.711, 875.803 853.477, 874.506 844.041 C 873.890 839.566, 873.022 837.868, 869.329 833.920 C 861.566 825.621, 854.253 823.928, 846.185 828.563 M 503.247 849.706 C 502.008 849.945, 499.463 851.584, 497.591 853.349 C 493.136 857.551, 491.958 863.966, 494.599 869.643 C 496.546 873.831, 497.736 874.851, 502.876 876.741 C 510.147 879.415, 519.644 871.690, 519.322 863.363 C 519.096 857.545, 516.621 853.357, 512.019 851.010 C 508.071 848.996, 507.431 848.901, 503.247 849.706 M 819.500 891.945 C 818.400 892.396, 816.769 893.605, 815.876 894.632 C 813.877 896.933, 811.789 903.199, 812.389 905.097 C 812.633 905.869, 813.112 907.769, 813.453 909.319 C 814.363 913.458, 819.187 917.687, 823.907 918.484 C 827.361 919.068, 828.525 918.756, 831.924 916.334 C 834.111 914.775, 836.397 912.583, 837.005 911.462 C 838.456 908.789, 839.049 902.148, 837.901 901.439 C 837.405 901.132, 837 900.043, 837 899.018 C 837 897.993, 835.615 895.769, 833.923 894.077 C 831.336 891.489, 830.103 891.010, 826.173 891.063 C 823.603 891.098, 820.600 891.495, 819.500 891.945 M 664.557 986.223 C 663.701 987.445, 663 989.268, 663 990.275 C 663 991.281, 665.893 999.169, 669.429 1007.802 C 678.868 1030.852, 688.947 1055.578, 695.470 1071.693 C 698.631 1079.499, 702.030 1086.622, 703.025 1087.522 C 705.709 1089.951, 707.804 1088.378, 716.194 1077.631 C 720.212 1072.483, 733.962 1055.113, 746.750 1039.030 C 771.173 1008.312, 772.157 1006.630, 768.250 1002.267 C 766.796 1000.644, 758.382 998.928, 718.500 992.121 C 692.100 987.616, 669.513 983.946, 668.307 983.965 C 667.100 983.984, 665.413 985, 664.557 986.223" stroke="none" fill="#f4f1de" fill-rule="evenodd"/><path d="M 288 159.640 C 279.294 162.441, 267.761 169.887, 256.265 180.128 C 244.580 190.537, 156.329 278.905, 145.540 291 C 126.788 312.021, 109.580 334.168, 104.803 343.430 C 103.688 345.591, 101.655 351.216, 100.284 355.930 C 98.234 362.980, 97.865 366.051, 98.204 373.246 C 98.567 380.970, 98.963 382.489, 101.590 386.246 C 105.044 391.185, 113.146 397.005, 121 400.187 C 125.764 402.117, 128.241 402.404, 139.500 402.328 C 154.678 402.227, 164.465 400.409, 177.128 395.341 C 187.200 391.310, 190.355 391.255, 190.802 395.103 C 190.968 396.534, 188.386 407.784, 185.064 420.103 C 168.833 480.289, 159.553 531.778, 156.998 575.813 C 155.645 599.156, 157.380 635.597, 161.055 661 C 161.572 664.575, 162.196 669.750, 162.442 672.500 C 163.522 684.594, 174.214 723.401, 180.764 739 C 184.709 748.395, 197.992 775.506, 205.506 789.500 C 215.575 808.253, 229.514 822.899, 240.516 826.287 C 245.559 827.840, 246.373 827.858, 249.036 826.481 C 255.433 823.174, 258.750 811.016, 259.946 786.500 C 260.815 768.680, 261.298 766, 263.646 766 C 264.434 766, 276.691 770.066, 290.883 775.035 C 313.775 783.051, 317.014 783.945, 319.591 782.965 C 326.543 780.322, 328.254 775.403, 325.392 766.286 C 323.241 759.433, 314.606 742.383, 304.479 724.991 C 265.213 657.555, 245.755 592.247, 238.536 503.654 C 237.011 484.940, 236.312 417.956, 237.607 414.582 C 237.972 413.630, 239.399 413, 241.190 413 C 243.617 413, 246.231 414.990, 255.333 423.768 C 281.986 449.470, 304.656 461.271, 315.929 455.313 C 321.172 452.541, 324.941 447.048, 327.217 438.861 C 331.910 421.980, 330.250 363.496, 323.430 305.500 C 320.825 283.344, 312.168 227.259, 308.920 211.500 C 307.220 203.250, 305.444 193.762, 304.973 190.415 C 303.692 181.311, 299.945 166.846, 298.162 164.125 C 296.913 162.218, 291.091 158.713, 289.782 159.079 C 289.627 159.122, 288.825 159.375, 288 159.640 M 405.343 903.500 C 405.346 907.900, 405.522 909.576, 405.733 907.224 C 405.945 904.872, 405.942 901.272, 405.727 899.224 C 405.512 897.176, 405.339 899.100, 405.343 903.500 M 542.728 1023.722 C 544.503 1023.943, 547.653 1023.946, 549.728 1023.730 C 551.802 1023.513, 550.350 1023.333, 546.500 1023.328 C 542.650 1023.324, 540.952 1023.501, 542.728 1023.722" stroke="none" fill="#f2cc8e" fill-rule="evenodd"/><path d="M 674.512 997.621 C 675.418 999.754, 678.636 1007.575, 681.663 1015 C 684.690 1022.425, 687.550 1029.400, 688.019 1030.500 C 690.366 1036.011, 701.080 1062.388, 703.524 1068.674 C 706.314 1075.849, 706.314 1075.849, 716.907 1062.496 C 722.733 1055.151, 732 1043.410, 737.500 1036.404 C 743 1029.398, 750.077 1020.490, 753.226 1016.609 C 756.375 1012.727, 758.625 1009.278, 758.226 1008.943 C 757.827 1008.609, 739.725 1005.304, 718 1001.598 C 696.275 997.893, 677.232 994.609, 675.682 994.301 C 672.865 993.741, 672.865 993.741, 674.512 997.621" stroke="none" fill="#df7a5e" fill-rule="evenodd"/><path d="M 283 152.606 C 265.900 159.104, 260.236 163.959, 199.127 224.500 C 137.823 285.233, 108.867 318.124, 98.537 338.755 C 92.571 350.671, 90.718 359.542, 91.170 374.033 C 91.549 386.195, 91.676 386.819, 94.750 391.610 C 99.946 399.708, 106.333 403.882, 120.758 408.607 C 129.842 411.583, 132.393 412, 141.519 412 C 152.500 412, 162.872 410.061, 175.055 405.730 C 181.610 403.401, 181.610 403.401, 177.316 418.950 C 157.235 491.667, 147.089 563.472, 149.947 612.647 C 151.972 647.500, 152.961 658.454, 154.900 667.500 C 155.961 672.450, 157.565 680.775, 158.466 686 C 160.595 698.348, 168.339 726.569, 172.051 735.500 C 173.651 739.350, 175.648 744.480, 176.489 746.901 C 179.534 755.665, 191.540 781.684, 196.145 789.500 C 198.738 793.900, 202.579 800.400, 204.680 803.944 C 209.437 811.969, 223.686 827.063, 231 831.825 C 235.750 834.918, 237.491 835.462, 243.762 835.813 C 250.466 836.189, 251.301 836.008, 254.643 833.459 C 258.943 830.179, 263.134 821.473, 264.974 812 C 265.668 808.425, 266.521 798.975, 266.868 791 C 267.465 777.314, 267.612 776.508, 269.500 776.639 C 270.600 776.715, 280.640 779.977, 291.811 783.889 C 313.416 791.453, 318.589 792.323, 325.295 789.521 C 331.222 787.045, 333 783.478, 333 774.064 C 333 761.074, 328.826 750.954, 310.496 719.500 C 301.655 704.328, 287.589 676.220, 281.680 661.917 C 256.969 602.094, 244 529.888, 244 452.122 C 244 423.724, 244 423.724, 252.250 431.616 C 275.511 453.867, 294.404 465, 308.903 465 C 316.321 465, 318.807 464.072, 324.025 459.358 C 333.938 450.403, 336.968 437.560, 336.987 404.423 C 337.019 348.840, 328.226 269.681, 314.052 197.928 C 311.273 183.864, 309 171.750, 309 171.007 C 309 168.607, 303.078 157.422, 300.550 155.047 C 298.592 153.207, 296.717 152.668, 291.297 152.388 C 287.559 152.194, 283.825 152.292, 283 152.606 M 282.825 161.443 C 279.704 162.740, 275.037 165.308, 272.456 167.150 C 269.874 168.993, 267.097 170.950, 266.285 171.500 C 262.566 174.018, 251.848 184.077, 232.277 203.415 C 156.395 278.393, 152.132 282.742, 137.469 300.144 C 108.834 334.128, 104.226 341.049, 100.103 356.261 C 97.826 364.666, 97.352 376.125, 99.031 382.173 C 100.035 385.787, 109.800 396, 112.252 396 C 112.852 396, 114.053 396.599, 114.921 397.331 C 119.379 401.088, 126.277 402.502, 139.500 402.371 C 154.631 402.220, 164.674 400.353, 176.930 395.411 C 181.582 393.535, 186.440 392, 187.726 392 C 192.387 392, 192.159 393.972, 184.135 423 C 169.590 475.623, 159.488 532.536, 157.007 575.842 C 155.631 599.837, 157.310 635.131, 161.056 661 C 161.574 664.575, 162.219 670.007, 162.490 673.070 C 163.347 682.772, 175.150 726.787, 179.563 736.739 C 183.852 746.410, 201.397 782.655, 202.386 783.887 C 202.999 784.649, 205.075 788.344, 207 792.097 C 211.644 801.151, 222.549 814.832, 229.422 820.226 C 232.467 822.616, 237.409 825.405, 240.403 826.422 C 245.737 828.235, 245.915 828.234, 249.174 826.338 C 255.731 822.524, 258.626 811.930, 259.923 787 C 260.395 777.925, 261.094 769.739, 261.475 768.808 C 262.561 766.162, 265.918 766.244, 273.500 769.104 C 277.350 770.556, 288.787 774.574, 298.915 778.033 C 317.330 784.321, 317.330 784.321, 321.644 782.033 C 326.370 779.526, 327.832 775.911, 326.604 769.768 C 325.408 763.791, 315.923 744.322, 305.524 726.500 C 292.534 704.240, 280.530 680.090, 273.125 661.320 C 254.065 613.013, 243.419 564.170, 238.511 502.510 C 236.603 478.535, 236.383 416.017, 238.200 414.200 C 241.088 411.312, 244.023 412.993, 255.765 424.259 C 270.019 437.934, 281.719 446.771, 292.924 452.325 C 300.479 456.069, 302.097 456.500, 308.616 456.500 C 315.561 456.500, 316.045 456.345, 319.527 453 C 324.491 448.232, 325.913 445.177, 328.099 434.582 C 331.371 418.729, 330.304 373.769, 325.476 324 C 322.613 294.498, 314.481 238.704, 309.297 213 C 307.356 203.375, 305.429 193.025, 305.017 190 C 303.898 181.806, 300.020 166.827, 298.328 164.166 C 297.016 162.103, 291.409 158.927, 289.282 159.042 C 288.852 159.066, 285.946 160.146, 282.825 161.443 M 495.500 215.641 C 489.904 217.961, 485.264 221.589, 483.481 225.037 C 482.646 226.651, 481.270 231.628, 480.422 236.097 C 479.180 242.647, 479.092 245.608, 479.972 251.362 C 481.855 263.685, 494.413 286.306, 509.040 303.726 C 516.054 312.079, 520.194 314.081, 526.290 312.069 C 530.785 310.586, 532.461 307.987, 535.082 298.433 C 536.999 291.446, 537.153 288.741, 536.809 268.131 C 536.439 245.907, 536.380 245.374, 533.558 238.500 C 528.262 225.602, 525.286 222.173, 515.277 217.438 C 508.244 214.111, 500.817 213.436, 495.500 215.641 M 437.900 269.845 C 429.572 273.879, 424.002 284.356, 425.432 293.298 C 426.903 302.500, 436.191 314.945, 444.979 319.489 C 455.875 325.124, 472.269 328.943, 485.723 328.982 C 493.369 329.004, 500.349 325.986, 502.029 321.931 C 504.768 315.318, 499.487 303.411, 489.849 294.470 C 483.300 288.395, 474.937 282.051, 470.500 279.793 C 468.300 278.673, 464.025 276.245, 461 274.398 C 453.535 269.839, 442.431 267.651, 437.900 269.845 M 1123.651 275.871 C 1119.331 277.132, 1116.634 278.745, 1113.338 282.039 C 1103.024 292.349, 1099.064 299.833, 1093.517 319.500 C 1092.121 324.450, 1090.083 331.457, 1088.989 335.071 C 1086.832 342.195, 1086.254 356.909, 1087.955 361.383 C 1089.308 364.941, 1093.215 367.169, 1098.238 367.245 C 1101.987 367.301, 1103.835 366.422, 1112.323 360.546 C 1130.807 347.748, 1147.385 331.092, 1153.374 319.301 C 1157.984 310.224, 1159.555 294.079, 1156.462 287.561 C 1154.361 283.133, 1149.618 278.400, 1144.790 275.912 C 1140.156 273.524, 1131.744 273.508, 1123.651 275.871 M 512 336.312 C 510.075 336.989, 506.925 338.544, 505 339.768 C 503.075 340.991, 500.825 342.004, 500 342.018 C 497.799 342.055, 477.055 363.438, 471.915 370.968 C 465.369 380.558, 462.909 385.140, 454.452 403.500 C 451.919 409, 449.438 414.269, 448.940 415.209 C 447.972 417.035, 434.812 455.529, 430.038 470.500 C 428.459 475.450, 425.975 482.875, 424.517 487 C 423.059 491.125, 420.280 499.450, 418.342 505.500 C 416.403 511.550, 411.933 525.275, 408.408 536 C 404.883 546.725, 400.194 562.925, 397.989 572 C 395.784 581.075, 393.327 590.525, 392.529 593 C 390.553 599.133, 383.975 624.453, 382.917 630 C 382.445 632.475, 380.888 639.225, 379.457 645 C 376.874 655.429, 376.245 658.380, 372.101 679.500 C 369.121 694.692, 367.857 700.096, 362.980 718.500 C 360.649 727.300, 357.949 738.100, 356.982 742.500 C 356.015 746.900, 354.539 753.425, 353.701 757 C 352.864 760.575, 351.618 767.550, 350.934 772.500 C 350.249 777.450, 349.348 781.950, 348.932 782.500 C 348.516 783.050, 347.665 786.425, 347.040 790 C 346.416 793.575, 345.258 798.525, 344.467 801 C 342.009 808.694, 338.774 828.813, 337.392 845 C 334.248 881.827, 333.109 900.015, 333.478 907.500 C 334.221 922.570, 337.083 944.609, 338.908 949.315 C 339.509 950.863, 340.013 953.338, 340.029 954.815 C 340.053 957.105, 344.709 971.457, 351.994 991.702 C 353.659 996.328, 364.397 1017.659, 369.763 1027 C 372.947 1032.544, 382.887 1047.101, 386.606 1051.668 C 388.473 1053.961, 390 1056.117, 390 1056.459 C 390 1057.671, 416.796 1087.597, 423.615 1094 C 437.794 1107.314, 455.436 1121.528, 469.500 1130.969 C 473.900 1133.922, 480.066 1138.063, 483.201 1140.169 C 486.337 1142.276, 489.179 1144, 489.518 1144 C 489.856 1144, 491.629 1145.141, 493.457 1146.535 C 495.285 1147.930, 506.393 1153.905, 518.141 1159.815 C 548.414 1175.043, 575.765 1185.758, 604.500 1193.648 C 627.219 1199.886, 639.920 1202.874, 650.353 1204.433 C 655.934 1205.267, 662.525 1206.391, 665 1206.931 C 667.475 1207.471, 671.391 1207.932, 673.703 1207.956 C 676.015 1207.980, 678.940 1208.428, 680.203 1208.950 C 681.466 1209.473, 694.875 1210.649, 710 1211.563 C 742.275 1213.513, 778.087 1212.886, 799.500 1209.996 C 820.862 1207.113, 829.966 1205.751, 834 1204.836 C 836.475 1204.275, 840.075 1203.615, 842 1203.369 C 846.646 1202.777, 857.290 1200.390, 863.500 1198.547 C 866.250 1197.730, 871.875 1196.181, 876 1195.102 C 889.088 1191.681, 898.319 1188.630, 922.655 1179.683 C 950.109 1169.590, 988.196 1148.419, 1014.500 1128.630 C 1035.985 1112.467, 1064.499 1084.143, 1076.543 1067 C 1099.765 1033.947, 1109.633 1013.985, 1119.795 979.500 C 1125.352 960.643, 1126.719 947.591, 1128.003 901.148 C 1128.556 881.154, 1129.221 864.452, 1129.480 864.032 C 1129.740 863.611, 1130.222 856.570, 1130.551 848.384 C 1130.880 840.198, 1131.327 832.936, 1131.545 832.246 C 1131.762 831.556, 1132.008 820.081, 1132.090 806.746 C 1132.172 793.411, 1132.606 778.900, 1133.055 774.500 C 1134.135 763.906, 1136.947 715.893, 1137.448 699.500 C 1137.667 692.350, 1138.218 679.525, 1138.673 671 C 1139.128 662.475, 1139.472 646.950, 1139.439 636.500 C 1139.351 609.546, 1137.997 539.362, 1137.460 534 C 1137.212 531.525, 1136.781 520.950, 1136.502 510.500 C 1136.222 500.050, 1135.592 488.350, 1135.101 484.500 C 1132.521 464.267, 1131.552 458.570, 1128.981 448.500 C 1127.437 442.450, 1125.291 435.025, 1124.214 432 C 1122.046 425.912, 1112.068 406.692, 1110.803 406.167 C 1110.361 405.983, 1110 405.451, 1110 404.983 C 1110 403.979, 1100.432 394, 1099.469 394 C 1099.106 394, 1097.614 393.169, 1096.154 392.154 C 1089.555 387.564, 1078.477 387.661, 1059.505 392.474 C 1047.793 395.445, 1028.686 404.396, 1016.306 412.712 C 1008.774 417.771, 992.444 431.996, 985 439.981 C 977.541 447.983, 968.136 458.817, 965.532 462.408 C 963.899 464.658, 962.313 466.725, 962.007 467 C 961.700 467.275, 958.990 470.875, 955.984 475 C 952.978 479.125, 949.786 483.308, 948.892 484.296 C 947.997 485.284, 946.428 487.647, 945.405 489.546 C 944.382 491.446, 943.198 493, 942.773 493 C 942.348 493, 942 493.637, 942 494.417 C 942 495.196, 941.663 495.983, 941.250 496.167 C 940.311 496.584, 937.064 501.910, 936.322 504.250 C 936.016 505.212, 935.369 506, 934.883 506 C 934.398 506, 934 506.413, 934 506.917 C 934 507.422, 931.975 511.260, 929.500 515.446 C 927.025 519.632, 925 523.495, 925 524.029 C 925 524.563, 924.634 525, 924.187 525 C 923.739 525, 922.755 526.575, 922 528.500 C 921.245 530.425, 920.261 532, 919.813 532 C 919.366 532, 919 532.675, 919 533.500 C 919 534.325, 918.550 535, 918 535 C 917.450 535, 917 535.459, 917 536.021 C 917 536.583, 915.689 539.845, 914.087 543.271 C 912.484 546.697, 910.178 551.750, 908.961 554.500 C 907.744 557.250, 903.880 565.404, 900.374 572.620 C 896.868 579.836, 894 586.249, 894 586.870 C 894 587.492, 893.550 588, 893 588 C 892.450 588, 892 588.788, 891.999 589.750 C 891.998 590.712, 890.431 594.650, 888.516 598.500 C 886.601 602.350, 885.026 605.882, 885.017 606.349 C 884.999 607.251, 883.603 610.447, 878.548 621.157 C 875.406 627.814, 875.406 627.814, 870.271 626.005 C 867.447 625.011, 864.938 624.395, 864.695 624.638 C 864.453 624.880, 861.173 623.919, 857.406 622.501 C 853.639 621.083, 847.844 619.291, 844.529 618.518 C 841.213 617.745, 835.800 616.439, 832.500 615.616 C 819.950 612.484, 811.942 610.891, 801.398 609.426 C 795.404 608.593, 787.575 607.477, 784 606.946 C 780.425 606.415, 764.900 605.183, 749.500 604.208 C 722.880 602.523, 709.190 602.552, 685.500 604.345 C 681.650 604.636, 673.932 605.173, 668.349 605.538 C 656.524 606.311, 657.563 607.327, 656.037 593.500 C 654.746 581.803, 652.567 566.659, 650.643 556 C 649.799 551.325, 648.384 542.100, 647.500 535.500 C 645.933 523.814, 638.524 492.116, 633.358 475 C 626.945 453.752, 607.946 408.903, 599.394 394.825 C 594.554 386.858, 582.394 370.724, 576.863 364.931 C 572.822 360.699, 562.762 352.233, 554.126 345.797 C 552.132 344.311, 546.608 341.518, 541.852 339.591 C 531.908 335.562, 518.363 334.074, 512 336.312 M 1161 347.178 C 1137.525 352.728, 1119.331 363.128, 1113.823 374.145 C 1110.398 380.995, 1110.942 383.899, 1116.580 388.862 C 1127.523 398.494, 1160.756 400.160, 1177.271 391.905 C 1179.597 390.743, 1184.066 387.169, 1187.203 383.963 C 1193.901 377.116, 1196.631 369.978, 1195.666 361.831 C 1194.957 355.842, 1190.015 348.306, 1185.633 346.532 C 1180.964 344.640, 1170.582 344.913, 1161 347.178 M 567.500 687.532 C 545.321 690.778, 518.946 700.970, 499.500 713.808 C 483.392 724.442, 473.235 733.462, 459.308 749.500 C 435.033 777.454, 418.120 811.239, 411.102 845.795 C 405.190 874.905, 403.684 897.332, 406.017 921.500 C 408.139 943.482, 416.129 973.356, 424.062 988.965 C 425.678 992.145, 427 995.102, 427 995.536 C 427 996.766, 435.822 1011.648, 441.799 1020.500 C 451.627 1035.057, 476.142 1060.391, 488.278 1068.533 C 495.516 1073.388, 521.358 1086.834, 529.433 1089.946 C 532.220 1091.020, 537.870 1093.296, 541.989 1095.004 C 548.606 1097.749, 562.839 1102.659, 587 1110.533 C 591.125 1111.877, 596.750 1113.454, 599.500 1114.037 C 604.768 1115.155, 608.904 1116.166, 615.500 1117.948 C 620.916 1119.412, 627.573 1120.953, 633 1122 C 635.475 1122.477, 640.875 1123.569, 645 1124.426 C 649.125 1125.283, 655.875 1126.446, 660 1127.010 C 664.125 1127.574, 668.400 1128.438, 669.500 1128.931 C 670.600 1129.424, 682.525 1131.191, 696 1132.859 C 718.319 1135.620, 726.883 1136.470, 743 1137.522 C 746.025 1137.719, 752.550 1138.150, 757.500 1138.479 C 782.644 1140.150, 836.451 1138.741, 853 1135.978 C 856.025 1135.473, 860.075 1134.800, 862 1134.482 C 870.353 1133.103, 886.917 1128.137, 910 1120.093 C 923.465 1115.400, 924.958 1114.765, 935 1109.443 C 981.160 1084.983, 1016.577 1042.355, 1033.821 990.500 C 1038.944 975.097, 1040.351 969.076, 1043.453 949.298 C 1046.928 927.147, 1046.914 895.821, 1043.421 876.500 C 1042.161 869.531, 1037.477 851.786, 1034.446 842.500 C 1027.564 821.417, 1011.652 793.203, 997.791 777.509 C 964.861 740.224, 921.098 719.695, 875 719.911 C 862.723 719.969, 845.256 721.870, 838.783 723.852 C 810.532 732.506, 800.808 736.702, 784.020 747.479 C 772.300 755.004, 763.368 762.433, 751.941 774.162 C 746.134 780.123, 741.126 785, 740.813 785 C 740.499 785, 739.648 783.538, 738.920 781.750 C 734.499 770.882, 720.229 750.611, 707.562 737.201 C 676.050 703.842, 634.328 685.746, 589.761 686.107 C 582.467 686.167, 572.450 686.808, 567.500 687.532 M 581.500 703.636 C 548.875 705.922, 515.233 724.416, 489.262 754.343 C 479.992 765.026, 479.594 765.544, 472.454 776.203 C 458.846 796.518, 443.430 832.341, 440.481 850.500 C 440.124 852.700, 439.407 855.896, 438.887 857.602 C 436.391 865.798, 433.987 890.720, 434.121 907 C 434.425 943.822, 443.135 975.303, 460.406 1002 C 465.950 1010.569, 484.537 1029.673, 490.500 1032.931 C 492.700 1034.133, 496.750 1036.421, 499.500 1038.016 C 508.303 1043.119, 525.437 1047.797, 537.787 1048.467 C 556.674 1049.491, 577.633 1044.267, 596.500 1033.832 C 628.451 1016.160, 652.902 989.163, 671.973 950.500 C 677.662 938.966, 679.917 933.544, 682.165 926 C 682.739 924.075, 683.544 922.050, 683.954 921.500 C 684.364 920.950, 685.866 916, 687.292 910.500 C 694.996 880.781, 696.380 869.481, 695.682 842 C 695.395 830.725, 694.881 819.925, 694.540 818 C 691.996 803.664, 689.626 793.983, 685.974 783 C 683.093 774.335, 680.720 769.257, 674.048 757.480 C 663.132 738.208, 648.889 724.062, 629.990 713.718 C 618.217 707.274, 595.876 702.629, 581.500 703.636 M 572.337 728.978 C 531.784 737.632, 496.309 770.188, 474.789 818.500 C 472.584 823.450, 470.108 829.750, 469.288 832.500 C 468.467 835.250, 467.464 837.950, 467.059 838.500 C 466.294 839.539, 463.240 850.673, 460.581 862.118 C 458.246 872.171, 455.911 895.289, 456.099 906.500 C 456.761 946.016, 469.760 980.865, 491.798 1002.205 C 513.564 1023.281, 543.282 1029.396, 573.470 1019.010 C 579.331 1016.994, 592.764 1009.596, 600.500 1004.124 C 625.088 986.732, 648.163 955.042, 659.933 922.500 C 663.861 911.639, 667.936 898.424, 668.413 895 C 668.604 893.625, 669.267 890.475, 669.887 888 C 673.377 874.058, 675.093 839.123, 672.864 827.378 C 672.355 824.695, 671.465 819.125, 670.886 815 C 669.292 803.639, 662.661 785.070, 655.734 772.568 C 650.638 763.370, 647.904 759.800, 639.551 751.436 C 628.388 740.259, 619.814 735.045, 606 731.035 C 597.625 728.604, 579.329 727.485, 572.337 728.978 M 873 742.148 C 845.270 744.240, 821.028 757.367, 799.897 781.732 C 789.944 793.209, 784.151 802.235, 776.620 818 C 758.642 855.632, 753.227 902.525, 761.435 949.500 C 764.035 964.381, 766.752 974.152, 772.976 991 C 778.795 1006.754, 792.247 1030.682, 801.624 1041.958 C 811.276 1053.564, 824.619 1066.052, 835.500 1073.663 C 845.595 1080.723, 865.580 1088.803, 878 1090.846 C 889.530 1092.741, 891.319 1092.815, 903 1091.867 C 921.368 1090.376, 933.797 1086.082, 949.624 1075.761 C 966.652 1064.656, 976.718 1054.145, 989.616 1034 C 1013.645 996.470, 1023.337 944.719, 1015.923 893.529 C 1010.498 856.080, 996.431 821.084, 976.115 794.500 C 968.970 785.151, 952.340 769.067, 943.261 762.725 C 931.392 754.435, 916.489 747.577, 904 744.659 C 890.696 741.550, 885.987 741.169, 873 742.148 M 564.299 759.998 C 528.066 769.494, 498.686 801.339, 483.022 848.095 C 473.607 876.196, 473.076 912.018, 481.683 938.500 C 491.050 967.322, 508.951 986.451, 533.363 993.722 C 540.519 995.854, 542.886 996.090, 553 995.675 C 566.649 995.115, 574.615 992.913, 587 986.279 C 603.934 977.207, 618.778 963.079, 630.608 944.775 C 635.766 936.796, 643.010 922.498, 645.440 915.500 C 646.396 912.750, 647.547 909.783, 647.999 908.907 C 649.271 906.442, 653.717 887.413, 655.104 878.500 C 657.046 866.020, 656.597 842.388, 654.191 830.500 C 645.071 785.431, 617.210 757.846, 581.020 758.055 C 575.068 758.089, 568.801 758.817, 564.299 759.998 M 873.593 767.012 C 852.910 769.029, 835.166 778.365, 819.584 795.427 C 809.494 806.474, 805.254 812.463, 799.493 823.803 C 789.880 842.724, 783.705 863.975, 781.276 886.500 C 780.214 896.341, 780.642 927.229, 781.941 934.623 C 782.606 938.405, 783.627 944.200, 784.210 947.500 C 787.066 963.680, 796.952 993.058, 801.876 1000 C 802.852 1001.375, 805.085 1005.200, 806.839 1008.500 C 815.492 1024.776, 833.937 1044.394, 850.411 1054.841 C 877.552 1072.054, 912.400 1071.661, 938.994 1053.842 C 950.846 1045.902, 965.409 1030.328, 972.044 1018.500 C 988.845 988.548, 995.181 963.237, 995.233 925.859 C 995.258 907.718, 994.802 902.551, 991.803 887 C 985.681 855.262, 974.255 829.565, 956.453 807.500 C 933.039 778.479, 903.586 764.088, 873.593 767.012 M 543.500 793.587 C 536.202 796.224, 533.965 797.648, 527.893 803.521 C 521.027 810.162, 519.690 812.391, 518.122 819.799 C 515.032 834.398, 518.073 841.815, 529.284 847.028 C 539.565 851.808, 552.342 846.314, 562.963 832.548 C 567.028 827.279, 567.331 826.436, 568.069 818.345 C 568.521 813.385, 568.462 808.716, 567.930 807.317 C 566.214 802.803, 559.563 795.805, 555.167 793.889 C 550.102 791.681, 548.862 791.649, 543.500 793.587 M 872 796.997 C 847.075 799.732, 823.342 818.949, 809.411 847.678 C 800.929 865.167, 797.061 882.230, 796.271 905.637 C 795.519 927.936, 798.163 945.539, 805.190 965 C 811.332 982.012, 820.304 997.386, 831.066 1009.343 C 836.291 1015.147, 851.639 1027.273, 857.629 1030.330 C 876.451 1039.933, 898.057 1041.058, 917 1033.421 C 934.904 1026.203, 952.906 1007.471, 963.060 985.491 C 979.605 949.679, 980.118 902.629, 964.386 863.911 C 957.518 847.009, 945.620 829.397, 933.481 818.167 C 927.610 812.734, 914.521 804.421, 907.264 801.516 C 895.142 796.663, 885.872 795.475, 872 796.997 M 846.552 827.779 C 840.426 831.148, 838.112 833.264, 834.280 839 C 827.430 849.254, 826.681 851.644, 827.304 861.264 C 827.998 871.974, 829.959 876.390, 835.837 880.481 C 839.717 883.181, 840.945 883.496, 847.471 883.460 C 853.656 883.426, 855.378 883.016, 858.785 880.761 C 866.139 875.894, 875.669 861.098, 876.177 853.759 C 876.525 848.731, 873.635 836.899, 871.525 834.717 C 861.720 824.575, 855.513 822.850, 846.552 827.779 M 496.978 853.139 C 493.367 856.714, 493 857.552, 493 862.218 C 493 869.627, 494.695 873.460, 499.055 875.911 C 503.620 878.476, 506.284 878.508, 511.672 876.062 C 517.161 873.570, 519.223 870.231, 519.460 863.448 C 519.789 854.055, 514.617 849.037, 504.728 849.155 C 501.709 849.191, 500.162 849.986, 496.978 853.139 M 819.542 891.285 C 813.525 895.020, 810.871 900.488, 812.222 906.368 C 813.584 912.300, 815.037 914.890, 818.310 917.221 C 824.041 921.302, 833.458 918.573, 837.550 911.645 C 839.598 908.179, 839.065 899.555, 836.567 895.743 C 833.663 891.310, 823.703 888.702, 819.542 891.285 M 664.343 986.599 C 662.943 988.736, 662.829 989.848, 663.704 992.849 C 664.722 996.341, 697.790 1077.818, 700.293 1083 C 700.957 1084.375, 702.261 1086.344, 703.192 1087.376 C 704.846 1089.210, 704.938 1089.210, 707.359 1087.376 C 708.721 1086.344, 723.147 1068.696, 739.417 1048.158 C 766.306 1014.217, 769 1010.474, 769 1007.063 C 769 1004.749, 768.329 1002.712, 767.250 1001.751 C 766.223 1000.837, 760.333 999.353, 753 998.161 C 746.125 997.044, 724.752 993.401, 705.503 990.065 C 686.255 986.729, 669.503 984, 668.276 984 C 666.978 984, 665.334 985.086, 664.343 986.599 M 674.512 997.621 C 675.418 999.754, 678.636 1007.575, 681.663 1015 C 684.690 1022.425, 687.550 1029.400, 688.019 1030.500 C 690.366 1036.011, 701.080 1062.388, 703.524 1068.674 C 706.314 1075.849, 706.314 1075.849, 716.907 1062.496 C 722.733 1055.151, 732 1043.410, 737.500 1036.404 C 743 1029.398, 750.077 1020.490, 753.226 1016.609 C 756.375 1012.727, 758.625 1009.278, 758.226 1008.943 C 757.827 1008.609, 739.725 1005.304, 718 1001.598 C 696.275 997.893, 677.232 994.609, 675.682 994.301 C 672.865 993.741, 672.865 993.741, 674.512 997.621" stroke="none" fill="#3c445c" fill-rule="evenodd"/></svg>